<svg width="82" height="24" viewBox="0 0 82 24" fill="none" xmlns="http://www.w3.org/2000/svg">
<g clip-path="url(#clip0_13_89)">
<path d="M9.5 2.9502C11.3296 2.9502 12.8795 3.58461 14.1475 4.85254C15.4154 6.12047 16.0498 7.67038 16.0498 9.5C16.0498 10.2387 15.9326 10.9361 15.6973 11.5918C15.4677 12.2314 15.1561 12.7986 14.7656 13.2949L21.0703 19.5996L21.0352 19.6357L19.6357 21.0352L19.5996 21.0703L13.2949 14.7656C12.7986 15.1561 12.2314 15.4677 11.5918 15.6973C10.9361 15.9326 10.2387 16.0498 9.5 16.0498C7.67038 16.0498 6.12047 15.4154 4.85254 14.1475C3.58461 12.8795 2.9502 11.3296 2.9502 9.5C2.9502 7.67038 3.58461 6.12047 4.85254 4.85254C6.12047 3.58461 7.67038 2.9502 9.5 2.9502ZM9.5 5.0498C8.26311 5.0498 7.21317 5.48214 6.34766 6.34766C5.48214 7.21317 5.0498 8.26311 5.0498 9.5C5.0498 10.7369 5.48214 11.7868 6.34766 12.6523C7.21317 13.5179 8.26311 13.9502 9.5 13.9502C10.7369 13.9502 11.7868 13.5179 12.6523 12.6523C13.5179 11.7868 13.9502 10.7369 13.9502 9.5C13.9502 8.26311 13.5179 7.21317 12.6523 6.34766C11.7868 5.48214 10.7369 5.0498 9.5 5.0498Z" fill="url(#paint0_linear_13_89)" stroke="url(#paint1_linear_13_89)" stroke-width="0.1"/>
<g opacity="0.75" filter="url(#filter0_f_13_89)">
<circle cx="9.5" cy="9.5" r="5.4" stroke="#DDF4FF" stroke-width="0.2"/>
</g>
<g opacity="0.75" filter="url(#filter1_f_13_89)">
<rect x="14" y="14.3603" width="0.5" height="7.20023" transform="rotate(-46.1039 14 14.3603)" fill="#DDF4FF"/>
</g>
<path d="M14 5L14.0169 5.46244C14.0273 5.74537 14.2512 5.97226 14.5304 5.9826L15 6L14.5304 6.0174C14.2512 6.02774 14.0273 6.25463 14.0169 6.53756L14 7L13.9831 6.53756C13.9727 6.25463 13.7488 6.02774 13.4696 6.0174L13 6L13.4696 5.9826C13.7488 5.97226 13.9727 5.74537 13.9831 5.46244L14 5Z" fill="white"/>
<path d="M12.4226 2.42265L12.2828 3.8367L13.5773 4.42265L12.1633 4.28284L11.5773 5.57735L11.7172 4.1633L10.4226 3.57735L11.8367 3.71716L12.4226 2.42265Z" fill="white"/>
<path fill-rule="evenodd" clip-rule="evenodd" d="M12 2.75299C11.3113 2.75299 10.753 3.31129 10.753 4C10.753 4.68871 11.3113 5.24701 12 5.24701C12.6887 5.24701 13.247 4.68871 13.247 4C13.247 3.31129 12.6887 2.75299 12 2.75299ZM10.6936 4C10.6936 3.2785 11.2785 2.69361 12 2.69361C12.7215 2.69361 13.3064 3.2785 13.3064 4C13.3064 4.7215 12.7215 5.30639 12 5.30639C11.2785 5.30639 10.6936 4.7215 10.6936 4Z" fill="white"/>
</g>
<mask id="path-7-outside-1_13_89" maskUnits="userSpaceOnUse" x="22" y="6" width="53" height="10" fill="black">
<rect fill="white" x="22" y="6" width="53" height="10"/>
<path d="M24.508 6.624V15H22.828V6.624H24.508ZM28.7118 15.108C28.1678 15.108 27.6798 15.012 27.2478 14.82C26.8158 14.62 26.4718 14.352 26.2158 14.016C25.9678 13.68 25.8318 13.308 25.8078 12.9H27.4998C27.5318 13.156 27.6558 13.368 27.8718 13.536C28.0958 13.704 28.3718 13.788 28.6998 13.788C29.0198 13.788 29.2678 13.724 29.4438 13.596C29.6278 13.468 29.7198 13.304 29.7198 13.104C29.7198 12.888 29.6078 12.728 29.3838 12.624C29.1678 12.512 28.8198 12.392 28.3398 12.264C27.8438 12.144 27.4358 12.02 27.1158 11.892C26.8038 11.764 26.5318 11.568 26.2998 11.304C26.0758 11.04 25.9638 10.684 25.9638 10.236C25.9638 9.868 26.0678 9.532 26.2758 9.228C26.4918 8.924 26.7958 8.684 27.1878 8.508C27.5878 8.332 28.0558 8.244 28.5918 8.244C29.3838 8.244 30.0158 8.444 30.4878 8.844C30.9598 9.236 31.2198 9.768 31.2678 10.44H29.6598C29.6358 10.176 29.5238 9.968 29.3238 9.816C29.1318 9.656 28.8718 9.576 28.5438 9.576C28.2398 9.576 28.0038 9.632 27.8358 9.744C27.6758 9.856 27.5958 10.012 27.5958 10.212C27.5958 10.436 27.7078 10.608 27.9318 10.728C28.1558 10.84 28.5038 10.956 28.9758 11.076C29.4558 11.196 29.8518 11.32 30.1638 11.448C30.4758 11.576 30.7438 11.776 30.9678 12.048C31.1998 12.312 31.3198 12.664 31.3278 13.104C31.3278 13.488 31.2198 13.832 31.0038 14.136C30.7958 14.44 30.4918 14.68 30.0918 14.856C29.6998 15.024 29.2398 15.108 28.7118 15.108ZM34.3869 6.624V15H32.7069V6.624H34.3869ZM38.0028 9.732V12.948C38.0028 13.172 38.0548 13.336 38.1588 13.44C38.2708 13.536 38.4548 13.584 38.7108 13.584H39.4908V15H38.4348C37.0188 15 36.3108 14.312 36.3108 12.936V9.732H35.5188V8.352H36.3108V6.708H38.0028V8.352H39.4908V9.732H38.0028ZM45.8711 6.624V7.98H42.3791V10.128H45.0551V11.46H42.3791V15H40.6991V6.624H45.8711ZM46.6304 11.652C46.6304 10.98 46.7624 10.384 47.0264 9.864C47.2984 9.344 47.6624 8.944 48.1184 8.664C48.5824 8.384 49.0984 8.244 49.6664 8.244C50.1624 8.244 50.5944 8.344 50.9624 8.544C51.3384 8.744 51.6384 8.996 51.8624 9.3V8.352H53.5544V15H51.8624V14.028C51.6464 14.34 51.3464 14.6 50.9624 14.808C50.5864 15.008 50.1504 15.108 49.6544 15.108C49.0944 15.108 48.5824 14.964 48.1184 14.676C47.6624 14.388 47.2984 13.984 47.0264 13.464C46.7624 12.936 46.6304 12.332 46.6304 11.652ZM51.8624 11.676C51.8624 11.268 51.7824 10.92 51.6224 10.632C51.4624 10.336 51.2464 10.112 50.9744 9.96C50.7024 9.8 50.4104 9.72 50.0984 9.72C49.7864 9.72 49.4984 9.796 49.2344 9.948C48.9704 10.1 48.7544 10.324 48.5864 10.62C48.4264 10.908 48.3464 11.252 48.3464 11.652C48.3464 12.052 48.4264 12.404 48.5864 12.708C48.7544 13.004 48.9704 13.232 49.2344 13.392C49.5064 13.552 49.7944 13.632 50.0984 13.632C50.4104 13.632 50.7024 13.556 50.9744 13.404C51.2464 13.244 51.4624 13.02 51.6224 12.732C51.7824 12.436 51.8624 12.084 51.8624 11.676ZM59.1312 15L56.8752 12.168V15H55.1952V6.12H56.8752V11.172L59.1072 8.352H61.2912L58.3632 11.688L61.3152 15H59.1312ZM68.383 11.532C68.383 11.772 68.367 11.988 68.335 12.18H63.475C63.515 12.66 63.683 13.036 63.979 13.308C64.275 13.58 64.639 13.716 65.071 13.716C65.695 13.716 66.139 13.448 66.403 12.912H68.215C68.023 13.552 67.655 14.08 67.111 14.496C66.567 14.904 65.899 15.108 65.107 15.108C64.467 15.108 63.891 14.968 63.379 14.688C62.875 14.4 62.479 13.996 62.191 13.476C61.911 12.956 61.771 12.356 61.771 11.676C61.771 10.988 61.911 10.384 62.191 9.864C62.471 9.344 62.863 8.944 63.367 8.664C63.871 8.384 64.451 8.244 65.107 8.244C65.739 8.244 66.303 8.38 66.799 8.652C67.303 8.924 67.691 9.312 67.963 9.816C68.243 10.312 68.383 10.884 68.383 11.532ZM66.643 11.052C66.635 10.62 66.479 10.276 66.175 10.02C65.871 9.756 65.499 9.624 65.059 9.624C64.643 9.624 64.291 9.752 64.003 10.008C63.723 10.256 63.551 10.604 63.487 11.052H66.643ZM71.9492 6.336C72.7813 6.336 73.4493 6.564 73.9533 7.02C74.4653 7.468 74.7213 8.088 74.7213 8.88C74.7213 9.664 74.4693 10.264 73.9653 10.68C73.4613 11.088 72.7933 11.292 71.9613 11.292L71.9133 12.216H70.4373L70.3773 10.176H70.9173C71.6133 10.176 72.1493 10.084 72.5253 9.9C72.9013 9.716 73.0893 9.38 73.0893 8.892C73.0893 8.54 72.9853 8.26 72.7773 8.052C72.5773 7.844 72.3013 7.74 71.9492 7.74C71.5813 7.74 71.2933 7.84 71.0853 8.04C70.8853 8.24 70.7853 8.516 70.7853 8.868H69.2013C69.1933 8.38 69.2973 7.944 69.5133 7.56C69.7293 7.176 70.0453 6.876 70.4613 6.66C70.8853 6.444 71.3813 6.336 71.9492 6.336ZM71.1693 15.084C70.8653 15.084 70.6133 14.992 70.4133 14.808C70.2213 14.616 70.1253 14.38 70.1253 14.1C70.1253 13.82 70.2213 13.588 70.4133 13.404C70.6133 13.212 70.8653 13.116 71.1693 13.116C71.4653 13.116 71.7093 13.212 71.9013 13.404C72.0933 13.588 72.1893 13.82 72.1893 14.1C72.1893 14.38 72.0933 14.616 71.9013 14.808C71.7093 14.992 71.4653 15.084 71.1693 15.084Z"/>
</mask>
<path d="M24.508 6.624V15H22.828V6.624H24.508ZM28.7118 15.108C28.1678 15.108 27.6798 15.012 27.2478 14.82C26.8158 14.62 26.4718 14.352 26.2158 14.016C25.9678 13.68 25.8318 13.308 25.8078 12.9H27.4998C27.5318 13.156 27.6558 13.368 27.8718 13.536C28.0958 13.704 28.3718 13.788 28.6998 13.788C29.0198 13.788 29.2678 13.724 29.4438 13.596C29.6278 13.468 29.7198 13.304 29.7198 13.104C29.7198 12.888 29.6078 12.728 29.3838 12.624C29.1678 12.512 28.8198 12.392 28.3398 12.264C27.8438 12.144 27.4358 12.02 27.1158 11.892C26.8038 11.764 26.5318 11.568 26.2998 11.304C26.0758 11.04 25.9638 10.684 25.9638 10.236C25.9638 9.868 26.0678 9.532 26.2758 9.228C26.4918 8.924 26.7958 8.684 27.1878 8.508C27.5878 8.332 28.0558 8.244 28.5918 8.244C29.3838 8.244 30.0158 8.444 30.4878 8.844C30.9598 9.236 31.2198 9.768 31.2678 10.44H29.6598C29.6358 10.176 29.5238 9.968 29.3238 9.816C29.1318 9.656 28.8718 9.576 28.5438 9.576C28.2398 9.576 28.0038 9.632 27.8358 9.744C27.6758 9.856 27.5958 10.012 27.5958 10.212C27.5958 10.436 27.7078 10.608 27.9318 10.728C28.1558 10.84 28.5038 10.956 28.9758 11.076C29.4558 11.196 29.8518 11.32 30.1638 11.448C30.4758 11.576 30.7438 11.776 30.9678 12.048C31.1998 12.312 31.3198 12.664 31.3278 13.104C31.3278 13.488 31.2198 13.832 31.0038 14.136C30.7958 14.44 30.4918 14.68 30.0918 14.856C29.6998 15.024 29.2398 15.108 28.7118 15.108ZM34.3869 6.624V15H32.7069V6.624H34.3869ZM38.0028 9.732V12.948C38.0028 13.172 38.0548 13.336 38.1588 13.44C38.2708 13.536 38.4548 13.584 38.7108 13.584H39.4908V15H38.4348C37.0188 15 36.3108 14.312 36.3108 12.936V9.732H35.5188V8.352H36.3108V6.708H38.0028V8.352H39.4908V9.732H38.0028ZM45.8711 6.624V7.98H42.3791V10.128H45.0551V11.46H42.3791V15H40.6991V6.624H45.8711ZM46.6304 11.652C46.6304 10.98 46.7624 10.384 47.0264 9.864C47.2984 9.344 47.6624 8.944 48.1184 8.664C48.5824 8.384 49.0984 8.244 49.6664 8.244C50.1624 8.244 50.5944 8.344 50.9624 8.544C51.3384 8.744 51.6384 8.996 51.8624 9.3V8.352H53.5544V15H51.8624V14.028C51.6464 14.34 51.3464 14.6 50.9624 14.808C50.5864 15.008 50.1504 15.108 49.6544 15.108C49.0944 15.108 48.5824 14.964 48.1184 14.676C47.6624 14.388 47.2984 13.984 47.0264 13.464C46.7624 12.936 46.6304 12.332 46.6304 11.652ZM51.8624 11.676C51.8624 11.268 51.7824 10.92 51.6224 10.632C51.4624 10.336 51.2464 10.112 50.9744 9.96C50.7024 9.8 50.4104 9.72 50.0984 9.72C49.7864 9.72 49.4984 9.796 49.2344 9.948C48.9704 10.1 48.7544 10.324 48.5864 10.62C48.4264 10.908 48.3464 11.252 48.3464 11.652C48.3464 12.052 48.4264 12.404 48.5864 12.708C48.7544 13.004 48.9704 13.232 49.2344 13.392C49.5064 13.552 49.7944 13.632 50.0984 13.632C50.4104 13.632 50.7024 13.556 50.9744 13.404C51.2464 13.244 51.4624 13.02 51.6224 12.732C51.7824 12.436 51.8624 12.084 51.8624 11.676ZM59.1312 15L56.8752 12.168V15H55.1952V6.12H56.8752V11.172L59.1072 8.352H61.2912L58.3632 11.688L61.3152 15H59.1312ZM68.383 11.532C68.383 11.772 68.367 11.988 68.335 12.18H63.475C63.515 12.66 63.683 13.036 63.979 13.308C64.275 13.58 64.639 13.716 65.071 13.716C65.695 13.716 66.139 13.448 66.403 12.912H68.215C68.023 13.552 67.655 14.08 67.111 14.496C66.567 14.904 65.899 15.108 65.107 15.108C64.467 15.108 63.891 14.968 63.379 14.688C62.875 14.4 62.479 13.996 62.191 13.476C61.911 12.956 61.771 12.356 61.771 11.676C61.771 10.988 61.911 10.384 62.191 9.864C62.471 9.344 62.863 8.944 63.367 8.664C63.871 8.384 64.451 8.244 65.107 8.244C65.739 8.244 66.303 8.38 66.799 8.652C67.303 8.924 67.691 9.312 67.963 9.816C68.243 10.312 68.383 10.884 68.383 11.532ZM66.643 11.052C66.635 10.62 66.479 10.276 66.175 10.02C65.871 9.756 65.499 9.624 65.059 9.624C64.643 9.624 64.291 9.752 64.003 10.008C63.723 10.256 63.551 10.604 63.487 11.052H66.643ZM71.9492 6.336C72.7813 6.336 73.4493 6.564 73.9533 7.02C74.4653 7.468 74.7213 8.088 74.7213 8.88C74.7213 9.664 74.4693 10.264 73.9653 10.68C73.4613 11.088 72.7933 11.292 71.9613 11.292L71.9133 12.216H70.4373L70.3773 10.176H70.9173C71.6133 10.176 72.1493 10.084 72.5253 9.9C72.9013 9.716 73.0893 9.38 73.0893 8.892C73.0893 8.54 72.9853 8.26 72.7773 8.052C72.5773 7.844 72.3013 7.74 71.9492 7.74C71.5813 7.74 71.2933 7.84 71.0853 8.04C70.8853 8.24 70.7853 8.516 70.7853 8.868H69.2013C69.1933 8.38 69.2973 7.944 69.5133 7.56C69.7293 7.176 70.0453 6.876 70.4613 6.66C70.8853 6.444 71.3813 6.336 71.9492 6.336ZM71.1693 15.084C70.8653 15.084 70.6133 14.992 70.4133 14.808C70.2213 14.616 70.1253 14.38 70.1253 14.1C70.1253 13.82 70.2213 13.588 70.4133 13.404C70.6133 13.212 70.8653 13.116 71.1693 13.116C71.4653 13.116 71.7093 13.212 71.9013 13.404C72.0933 13.588 72.1893 13.82 72.1893 14.1C72.1893 14.38 72.0933 14.616 71.9013 14.808C71.7093 14.992 71.4653 15.084 71.1693 15.084Z" fill="url(#paint2_linear_13_89)"/>
<path d="M24.508 6.624H24.608V6.524H24.508V6.624ZM24.508 15V15.1H24.608V15H24.508ZM22.828 15H22.728V15.1H22.828V15ZM22.828 6.624V6.524H22.728V6.624H22.828ZM24.508 6.624H24.408V15H24.508H24.608V6.624H24.508ZM24.508 15V14.9H22.828V15V15.1H24.508V15ZM22.828 15H22.928V6.624H22.828H22.728V15H22.828ZM22.828 6.624V6.724H24.508V6.624V6.524H22.828V6.624ZM27.2478 14.82L27.2058 14.9108L27.2072 14.9114L27.2478 14.82ZM26.2158 14.016L26.1354 14.0754L26.1363 14.0766L26.2158 14.016ZM25.8078 12.9V12.8H25.7018L25.708 12.9059L25.8078 12.9ZM27.4998 12.9L27.5991 12.8876L27.5881 12.8H27.4998V12.9ZM27.8718 13.536L27.8104 13.6149L27.8118 13.616L27.8718 13.536ZM29.4438 13.596L29.3867 13.5139L29.385 13.5151L29.4438 13.596ZM29.3838 12.624L29.3378 12.7129L29.3417 12.7147L29.3838 12.624ZM28.3398 12.264L28.3656 12.1674L28.3634 12.1668L28.3398 12.264ZM27.1158 11.892L27.0779 11.9845L27.0787 11.9848L27.1158 11.892ZM26.2998 11.304L26.2236 11.3687L26.2247 11.37L26.2998 11.304ZM26.2758 9.228L26.1943 9.17007L26.1933 9.17153L26.2758 9.228ZM27.1878 8.508L27.1476 8.41647L27.1469 8.41677L27.1878 8.508ZM30.4878 8.844L30.4232 8.92029L30.424 8.92093L30.4878 8.844ZM31.2678 10.44V10.54H31.3752L31.3676 10.4329L31.2678 10.44ZM29.6598 10.44L29.5603 10.4491L29.5685 10.54H29.6598V10.44ZM29.3238 9.816L29.2598 9.8929L29.2633 9.89562L29.3238 9.816ZM27.8358 9.744L27.7804 9.66077L27.7785 9.66208L27.8358 9.744ZM27.9318 10.728L27.8846 10.8162L27.8871 10.8174L27.9318 10.728ZM28.9758 11.076L28.9512 11.1729L28.9516 11.173L28.9758 11.076ZM30.9678 12.048L30.8906 12.1116L30.8927 12.114L30.9678 12.048ZM31.3278 13.104H31.4279L31.4278 13.1022L31.3278 13.104ZM31.0038 14.136L30.9223 14.0781L30.9213 14.0795L31.0038 14.136ZM30.0918 14.856L30.1312 14.9479L30.1321 14.9475L30.0918 14.856ZM28.7118 15.108V15.008C28.1797 15.008 27.7059 14.9141 27.2885 14.7286L27.2478 14.82L27.2072 14.9114C27.6538 15.1099 28.156 15.208 28.7118 15.208V15.108ZM27.2478 14.82L27.2899 14.7293C26.8707 14.5352 26.5403 14.2769 26.2954 13.9554L26.2158 14.016L26.1363 14.0766C26.4034 14.4271 26.761 14.7048 27.2058 14.9107L27.2478 14.82ZM26.2158 14.016L26.2963 13.9566C26.0595 13.6358 25.9305 13.2823 25.9077 12.8941L25.8078 12.9L25.708 12.9059C25.7332 13.3337 25.8761 13.7242 26.1354 14.0754L26.2158 14.016ZM25.8078 12.9V13H27.4998V12.9V12.8H25.8078V12.9ZM27.4998 12.9L27.4006 12.9124C27.4361 13.1964 27.5749 13.4317 27.8104 13.6149L27.8718 13.536L27.9332 13.4571C27.7368 13.3043 27.6276 13.1156 27.5991 12.8876L27.4998 12.9ZM27.8718 13.536L27.8118 13.616C28.056 13.7991 28.354 13.888 28.6998 13.888V13.788V13.688C28.3896 13.688 28.1357 13.6089 27.9318 13.456L27.8718 13.536ZM28.6998 13.788V13.888C29.0315 13.888 29.3032 13.8219 29.5027 13.6769L29.4438 13.596L29.385 13.5151C29.2325 13.6261 29.0082 13.688 28.6998 13.688V13.788ZM29.4438 13.596L29.501 13.6781C29.708 13.534 29.8198 13.3411 29.8198 13.104H29.7198H29.6198C29.6198 13.2669 29.5476 13.402 29.3867 13.5139L29.4438 13.596ZM29.7198 13.104H29.8198C29.8198 12.9778 29.7868 12.8632 29.7178 12.7647C29.6493 12.6669 29.5498 12.5908 29.426 12.5333L29.3838 12.624L29.3417 12.7147C29.4419 12.7612 29.5104 12.8171 29.5539 12.8793C29.5969 12.9408 29.6198 13.0142 29.6198 13.104H29.7198ZM29.3838 12.624L29.4299 12.5352C29.2037 12.418 28.847 12.2957 28.3656 12.1674L28.3398 12.264L28.3141 12.3606C28.7927 12.4883 29.132 12.606 29.3378 12.7128L29.3838 12.624ZM28.3398 12.264L28.3634 12.1668C27.87 12.0474 27.467 11.9248 27.153 11.7992L27.1158 11.892L27.0787 11.9848C27.4047 12.1152 27.8177 12.2406 28.3163 12.3612L28.3398 12.264ZM27.1158 11.892L27.1538 11.7995C26.8567 11.6776 26.5972 11.4909 26.375 11.238L26.2998 11.304L26.2247 11.37C26.4665 11.6451 26.751 11.8504 27.0779 11.9845L27.1158 11.892ZM26.2998 11.304L26.3761 11.2393C26.1715 10.9981 26.0638 10.6674 26.0638 10.236H25.9638H25.8638C25.8638 10.7006 25.9802 11.0819 26.2236 11.3687L26.2998 11.304ZM25.9638 10.236H26.0638C26.0638 9.88817 26.1617 9.57185 26.3584 9.28447L26.2758 9.228L26.1933 9.17153C25.9739 9.49215 25.8638 9.84783 25.8638 10.236H25.9638ZM26.2758 9.228L26.3574 9.28592C26.5616 8.99852 26.8505 8.76906 27.2288 8.59923L27.1878 8.508L27.1469 8.41677C26.7412 8.59894 26.4221 8.84947 26.1943 9.17008L26.2758 9.228ZM27.1878 8.508L27.2281 8.59953C27.6129 8.43023 28.0666 8.344 28.5918 8.344V8.244V8.144C28.045 8.144 27.5628 8.23377 27.1476 8.41647L27.1878 8.508ZM28.5918 8.244V8.344C29.367 8.344 29.9738 8.53948 30.4232 8.92029L30.4878 8.844L30.5525 8.76771C30.0579 8.34852 29.4007 8.144 28.5918 8.144V8.244ZM30.4878 8.844L30.424 8.92093C30.8728 9.29372 31.1218 9.79936 31.1681 10.4471L31.2678 10.44L31.3676 10.4329C31.3179 9.73664 31.0469 9.17828 30.5517 8.76707L30.4878 8.844ZM31.2678 10.44V10.34H29.6598V10.44V10.54H31.2678V10.44ZM29.6598 10.44L29.7594 10.4309C29.733 10.1407 29.6081 9.9064 29.3844 9.73638L29.3238 9.816L29.2633 9.89562C29.4396 10.0296 29.5386 10.2113 29.5603 10.4491L29.6598 10.44ZM29.3238 9.816L29.3879 9.73918C29.1729 9.56007 28.8878 9.476 28.5438 9.476V9.576V9.676C28.8558 9.676 29.0908 9.75193 29.2598 9.89282L29.3238 9.816ZM28.5438 9.576V9.476C28.2295 9.476 27.9712 9.53361 27.7804 9.66079L27.8358 9.744L27.8913 9.8272C28.0365 9.73039 28.2502 9.676 28.5438 9.676V9.576ZM27.8358 9.744L27.7785 9.66208C27.591 9.79332 27.4958 9.9803 27.4958 10.212H27.5958H27.6958C27.6958 10.0437 27.7607 9.91868 27.8932 9.82592L27.8358 9.744ZM27.5958 10.212H27.4958C27.4958 10.3415 27.5285 10.4599 27.596 10.5636C27.6632 10.6666 27.7613 10.7501 27.8846 10.8161L27.9318 10.728L27.9791 10.6399C27.8784 10.5859 27.8085 10.5234 27.7636 10.4544C27.7192 10.3861 27.6958 10.3065 27.6958 10.212H27.5958ZM27.9318 10.728L27.8871 10.8174C28.121 10.9344 28.4775 11.0525 28.9512 11.1729L28.9758 11.076L29.0005 10.9791C28.5302 10.8595 28.1907 10.7456 27.9766 10.6386L27.9318 10.728ZM28.9758 11.076L28.9516 11.173C29.4289 11.2923 29.8199 11.415 30.1259 11.5405L30.1638 11.448L30.2018 11.3555C29.8838 11.225 29.4828 11.0997 29.0001 10.979L28.9758 11.076ZM30.1638 11.448L30.1259 11.5405C30.4219 11.662 30.6767 11.8517 30.8907 12.1116L30.9678 12.048L31.045 11.9844C30.811 11.7003 30.5298 11.49 30.2018 11.3555L30.1638 11.448ZM30.9678 12.048L30.8927 12.114C31.1055 12.3561 31.2202 12.6833 31.2279 13.1058L31.3278 13.104L31.4278 13.1022C31.4195 12.6447 31.2942 12.2679 31.043 11.982L30.9678 12.048ZM31.3278 13.104H31.2278C31.2278 13.4679 31.1259 13.7915 30.9223 14.0781L31.0038 14.136L31.0854 14.1939C31.3138 13.8725 31.4278 13.5081 31.4278 13.104H31.3278ZM31.0038 14.136L30.9213 14.0795C30.7257 14.3655 30.4377 14.5946 30.0516 14.7645L30.0918 14.856L30.1321 14.9475C30.546 14.7654 30.866 14.5145 31.0864 14.1925L31.0038 14.136ZM30.0918 14.856L30.0525 14.7641C29.6755 14.9256 29.2294 15.008 28.7118 15.008V15.108V15.208C29.2503 15.208 29.7242 15.1224 30.1312 14.9479L30.0918 14.856ZM34.3869 6.624H34.4869V6.524H34.3869V6.624ZM34.3869 15V15.1H34.4869V15H34.3869ZM32.7069 15H32.6069V15.1H32.7069V15ZM32.7069 6.624V6.524H32.6069V6.624H32.7069ZM34.3869 6.624H34.2869V15H34.3869H34.4869V6.624H34.3869ZM34.3869 15V14.9H32.7069V15V15.1H34.3869V15ZM32.7069 15H32.8069V6.624H32.7069H32.6069V15H32.7069ZM32.7069 6.624V6.724H34.3869V6.624V6.524H32.7069V6.624ZM38.0028 9.732V9.632H37.9028V9.732H38.0028ZM38.1588 13.44L38.0878 13.5109L38.0937 13.5159L38.1588 13.44ZM39.4907 13.584H39.5907V13.484H39.4907V13.584ZM39.4907 15V15.1H39.5907V15H39.4907ZM36.3108 9.732H36.4108V9.632H36.3108V9.732ZM35.5188 9.732H35.4187V9.832H35.5188V9.732ZM35.5188 8.352V8.252H35.4187V8.352H35.5188ZM36.3108 8.352V8.452H36.4108V8.352H36.3108ZM36.3108 6.708V6.608H36.2107V6.708H36.3108ZM38.0028 6.708H38.1028V6.608H38.0028V6.708ZM38.0028 8.352H37.9028V8.452H38.0028V8.352ZM39.4907 8.352H39.5907V8.252H39.4907V8.352ZM39.4907 9.732V9.832H39.5907V9.732H39.4907ZM38.0028 9.732H37.9028V12.948H38.0028H38.1028V9.732H38.0028ZM38.0028 12.948H37.9028C37.9028 13.1849 37.9575 13.3801 38.088 13.5107L38.1588 13.44L38.2295 13.3693C38.152 13.2919 38.1028 13.1591 38.1028 12.948H38.0028ZM38.1588 13.44L38.0937 13.5159C38.233 13.6354 38.4468 13.684 38.7108 13.684V13.584V13.484C38.4627 13.484 38.3085 13.4366 38.2238 13.3641L38.1588 13.44ZM38.7108 13.584V13.684H39.4907V13.584V13.484H38.7108V13.584ZM39.4907 13.584H39.3908V15H39.4907H39.5907V13.584H39.4907ZM39.4907 15V14.9H38.4347V15V15.1H39.4907V15ZM38.4347 15V14.9C37.7415 14.9 37.24 14.7315 36.9114 14.4123C36.5834 14.0935 36.4108 13.6078 36.4108 12.936H36.3108H36.2107C36.2107 13.6402 36.3921 14.1865 36.7721 14.5557C37.1515 14.9245 37.712 15.1 38.4347 15.1V15ZM36.3108 12.936H36.4108V9.732H36.3108H36.2107V12.936H36.3108ZM36.3108 9.732V9.632H35.5188V9.732V9.832H36.3108V9.732ZM35.5188 9.732H35.6187V8.352H35.5188H35.4187V9.732H35.5188ZM35.5188 8.352V8.452H36.3108V8.352V8.252H35.5188V8.352ZM36.3108 8.352H36.4108V6.708H36.3108H36.2107V8.352H36.3108ZM36.3108 6.708V6.808H38.0028V6.708V6.608H36.3108V6.708ZM38.0028 6.708H37.9028V8.352H38.0028H38.1028V6.708H38.0028ZM38.0028 8.352V8.452H39.4907V8.352V8.252H38.0028V8.352ZM39.4907 8.352H39.3908V9.732H39.4907H39.5907V8.352H39.4907ZM39.4907 9.732V9.632H38.0028V9.732V9.832H39.4907V9.732ZM45.8711 6.624H45.9711V6.524H45.8711V6.624ZM45.8711 7.98V8.08H45.9711V7.98H45.8711ZM42.3791 7.98V7.88H42.2791V7.98H42.3791ZM42.3791 10.128H42.2791V10.228H42.3791V10.128ZM45.0551 10.128H45.1551V10.028H45.0551V10.128ZM45.0551 11.46V11.56H45.1551V11.46H45.0551ZM42.3791 11.46V11.36H42.2791V11.46H42.3791ZM42.3791 15V15.1H42.4791V15H42.3791ZM40.6991 15H40.5991V15.1H40.6991V15ZM40.6991 6.624V6.524H40.5991V6.624H40.6991ZM45.8711 6.624H45.7711V7.98H45.8711H45.9711V6.624H45.8711ZM45.8711 7.98V7.88H42.3791V7.98V8.08H45.8711V7.98ZM42.3791 7.98H42.2791V10.128H42.3791H42.4791V7.98H42.3791ZM42.3791 10.128V10.228H45.0551V10.128V10.028H42.3791V10.128ZM45.0551 10.128H44.9551V11.46H45.0551H45.1551V10.128H45.0551ZM45.0551 11.46V11.36H42.3791V11.46V11.56H45.0551V11.46ZM42.3791 11.46H42.2791V15H42.3791H42.4791V11.46H42.3791ZM42.3791 15V14.9H40.6991V15V15.1H42.3791V15ZM40.6991 15H40.7991V6.624H40.6991H40.5991V15H40.6991ZM40.6991 6.624V6.724H45.8711V6.624V6.524H40.6991V6.624ZM47.0264 9.864L46.9378 9.81765L46.9372 9.81873L47.0264 9.864ZM48.1184 8.664L48.0667 8.57838L48.066 8.57878L48.1184 8.664ZM50.9624 8.544L50.9146 8.63187L50.9154 8.63229L50.9624 8.544ZM51.8624 9.3L51.7819 9.35932L51.9624 9.60429V9.3H51.8624ZM51.8624 8.352V8.252H51.7624V8.352H51.8624ZM53.5544 8.352H53.6544V8.252H53.5544V8.352ZM53.5544 15V15.1H53.6544V15H53.5544ZM51.8624 15H51.7624V15.1H51.8624V15ZM51.8624 14.028H51.9624V13.7079L51.7802 13.9711L51.8624 14.028ZM50.9624 14.808L51.0093 14.8963L51.01 14.8959L50.9624 14.808ZM48.1184 14.676L48.065 14.7606L48.0656 14.761L48.1184 14.676ZM47.0264 13.464L46.9369 13.5087L46.9378 13.5103L47.0264 13.464ZM51.6224 10.632L51.5344 10.6796L51.535 10.6806L51.6224 10.632ZM50.9744 9.96L50.9237 10.0462L50.9256 10.0473L50.9744 9.96ZM49.2344 9.948L49.1845 9.86134V9.86134L49.2344 9.948ZM48.5864 10.62L48.4994 10.5706L48.499 10.5714L48.5864 10.62ZM48.5864 12.708L48.4978 12.7546L48.4994 12.7574L48.5864 12.708ZM49.2344 13.392L49.1825 13.4775L49.1837 13.4782L49.2344 13.392ZM50.9744 13.404L51.0232 13.4913L51.0251 13.4902L50.9744 13.404ZM51.6224 12.732L51.7098 12.7806L51.7103 12.7796L51.6224 12.732ZM46.6304 11.652H46.7304C46.7304 10.9933 46.8597 10.4132 47.1155 9.90927L47.0264 9.864L46.9372 9.81873C46.6651 10.3548 46.5304 10.9667 46.5304 11.652H46.6304ZM47.0264 9.864L47.115 9.91035C47.3795 9.40475 47.7315 9.01887 48.1707 8.74922L48.1184 8.664L48.066 8.57878C47.5932 8.86913 47.2173 9.28325 46.9378 9.81765L47.0264 9.864ZM48.1184 8.664L48.17 8.74962C48.6177 8.47949 49.1157 8.344 49.6664 8.344V8.244V8.144C49.0811 8.144 48.5471 8.28851 48.0667 8.57838L48.1184 8.664ZM49.6664 8.244V8.344C50.1488 8.344 50.5638 8.44118 50.9146 8.63186L50.9624 8.544L51.0101 8.45614C50.625 8.24682 50.176 8.144 49.6664 8.144V8.244ZM50.9624 8.544L50.9154 8.63229C51.2799 8.82616 51.5678 9.06882 51.7819 9.35932L51.8624 9.3L51.9429 9.24068C51.7089 8.92318 51.3968 8.66183 51.0093 8.45571L50.9624 8.544ZM51.8624 9.3H51.9624V8.352H51.8624H51.7624V9.3H51.8624ZM51.8624 8.352V8.452H53.5544V8.352V8.252H51.8624V8.352ZM53.5544 8.352H53.4544V15H53.5544H53.6544V8.352H53.5544ZM53.5544 15V14.9H51.8624V15V15.1H53.5544V15ZM51.8624 15H51.9624V14.028H51.8624H51.7624V15H51.8624ZM51.8624 14.028L51.7802 13.9711C51.5744 14.2683 51.287 14.5184 50.9147 14.7201L50.9624 14.808L51.01 14.8959C51.4057 14.6816 51.7184 14.4117 51.9446 14.0849L51.8624 14.028ZM50.9624 14.808L50.9154 14.7197C50.5561 14.9108 50.1367 15.008 49.6544 15.008V15.108V15.208C50.164 15.208 50.6167 15.1052 51.0093 14.8963L50.9624 14.808ZM49.6544 15.108V15.008C49.1125 15.008 48.6189 14.8689 48.1711 14.591L48.1184 14.676L48.0656 14.761C48.5459 15.0591 49.0762 15.208 49.6544 15.208V15.108ZM48.1184 14.676L48.1718 14.5915C47.732 14.3137 47.3796 13.9235 47.115 13.4177L47.0264 13.464L46.9378 13.5103C47.2172 14.0445 47.5928 14.4623 48.065 14.7605L48.1184 14.676ZM47.0264 13.464L47.1158 13.4193C46.8597 12.9071 46.7304 12.3188 46.7304 11.652H46.6304H46.5304C46.5304 12.3452 46.665 12.9649 46.9369 13.5087L47.0264 13.464ZM51.8624 11.676H51.9624C51.9624 11.255 51.8798 10.8894 51.7098 10.5834L51.6224 10.632L51.535 10.6806C51.685 10.9506 51.7624 11.281 51.7624 11.676H51.8624ZM51.6224 10.632L51.7103 10.5844C51.5421 10.2731 51.3131 10.0347 51.0232 9.87271L50.9744 9.96L50.9256 10.0473C51.1797 10.1893 51.3827 10.3989 51.5344 10.6796L51.6224 10.632ZM50.9744 9.96L51.0251 9.87381C50.7379 9.70488 50.4284 9.62 50.0984 9.62V9.72V9.82C50.3923 9.82 50.6669 9.89512 50.9237 10.0462L50.9744 9.96ZM50.0984 9.72V9.62C49.7693 9.62 49.464 9.70038 49.1845 9.86134L49.2344 9.948L49.2843 10.0347C49.5327 9.89162 49.8034 9.82 50.0984 9.82V9.72ZM49.2344 9.948L49.1845 9.86134C48.9033 10.0233 48.6752 10.261 48.4994 10.5706L48.5864 10.62L48.6733 10.6694C48.8336 10.387 49.0375 10.1767 49.2843 10.0347L49.2344 9.948ZM48.5864 10.62L48.499 10.5714C48.3291 10.8772 48.2464 11.2386 48.2464 11.652H48.3464H48.4464C48.4464 11.2654 48.5236 10.9388 48.6738 10.6686L48.5864 10.62ZM48.3464 11.652H48.2464C48.2464 12.0656 48.3292 12.434 48.4979 12.7546L48.5864 12.708L48.6749 12.6614C48.5236 12.374 48.4464 12.0384 48.4464 11.652H48.3464ZM48.5864 12.708L48.4994 12.7574C48.675 13.0667 48.9025 13.3078 49.1825 13.4775L49.2344 13.392L49.2862 13.3065C49.0383 13.1562 48.8338 12.9413 48.6733 12.6586L48.5864 12.708ZM49.2344 13.392L49.1837 13.4782C49.4704 13.6469 49.7759 13.732 50.0984 13.732V13.632V13.532C49.8129 13.532 49.5423 13.4571 49.2851 13.3058L49.2344 13.392ZM50.0984 13.632V13.732C50.4274 13.732 50.7362 13.6516 51.0232 13.4913L50.9744 13.404L50.9256 13.3167C50.6685 13.4604 50.3933 13.532 50.0984 13.532V13.632ZM50.9744 13.404L51.0251 13.4902C51.3131 13.3207 51.5415 13.0834 51.7098 12.7806L51.6224 12.732L51.535 12.6834C51.3832 12.9566 51.1796 13.1673 50.9237 13.3178L50.9744 13.404ZM51.6224 12.732L51.7103 12.7796C51.8798 12.4661 51.9624 12.0971 51.9624 11.676H51.8624H51.7624C51.7624 12.0709 51.685 12.4059 51.5344 12.6844L51.6224 12.732ZM59.1312 15L59.053 15.0623L59.083 15.1H59.1312V15ZM56.8752 12.168L56.9534 12.1057L56.7752 11.882V12.168H56.8752ZM56.8752 15V15.1H56.9752V15H56.8752ZM55.1952 15H55.0952V15.1H55.1952V15ZM55.1952 6.12V6.02H55.0952V6.12H55.1952ZM56.8752 6.12H56.9752V6.02H56.8752V6.12ZM56.8752 11.172H56.7752V11.4595L56.9536 11.2341L56.8752 11.172ZM59.1072 8.352V8.252H59.0588L59.0288 8.28994L59.1072 8.352ZM61.2912 8.352L61.3663 8.41796L61.512 8.252H61.2912V8.352ZM58.3632 11.688L58.288 11.622L58.2297 11.6885L58.2885 11.7545L58.3632 11.688ZM61.3152 15V15.1H61.5383L61.3898 14.9335L61.3152 15ZM59.1312 15L59.2094 14.9377L56.9534 12.1057L56.8752 12.168L56.797 12.2303L59.053 15.0623L59.1312 15ZM56.8752 12.168H56.7752V15H56.8752H56.9752V12.168H56.8752ZM56.8752 15V14.9H55.1952V15V15.1H56.8752V15ZM55.1952 15H55.2952V6.12H55.1952H55.0952V15H55.1952ZM55.1952 6.12V6.22H56.8752V6.12V6.02H55.1952V6.12ZM56.8752 6.12H56.7752V11.172H56.8752H56.9752V6.12H56.8752ZM56.8752 11.172L56.9536 11.2341L59.1856 8.41406L59.1072 8.352L59.0288 8.28994L56.7968 11.1099L56.8752 11.172ZM59.1072 8.352V8.452H61.2912V8.352V8.252H59.1072V8.352ZM61.2912 8.352L61.216 8.28603L58.288 11.622L58.3632 11.688L58.4383 11.754L61.3663 8.41796L61.2912 8.352ZM58.3632 11.688L58.2885 11.7545L61.2405 15.0665L61.3152 15L61.3898 14.9335L58.4378 11.6215L58.3632 11.688ZM61.3152 15V14.9H59.1312V15V15.1H61.3152V15ZM68.335 12.18V12.28H68.4197L68.4336 12.1964L68.335 12.18ZM63.475 12.18V12.08H63.3663L63.3753 12.1883L63.475 12.18ZM63.979 13.308L63.9113 13.3816V13.3816L63.979 13.308ZM66.403 12.912V12.812H66.3408L66.3133 12.8678L66.403 12.912ZM68.215 12.912L68.3108 12.9407L68.3494 12.812H68.215V12.912ZM67.111 14.496L67.171 14.576L67.1717 14.5754L67.111 14.496ZM63.379 14.688L63.3294 14.7748L63.331 14.7757L63.379 14.688ZM62.191 13.476L62.1029 13.5234L62.1035 13.5245L62.191 13.476ZM62.191 9.864L62.103 9.81659V9.81659L62.191 9.864ZM63.367 8.664L63.4156 8.75142V8.75142L63.367 8.664ZM66.799 8.652L66.7509 8.73968L66.7515 8.74L66.799 8.652ZM67.963 9.816L67.875 9.8635L67.8759 9.86516L67.963 9.816ZM66.643 11.052V11.152H66.7449L66.743 11.0501L66.643 11.052ZM66.175 10.02L66.1094 10.0955L66.1106 10.0965L66.175 10.02ZM64.003 10.008L64.0693 10.0829L64.0694 10.0827L64.003 10.008ZM63.487 11.052L63.388 11.0379L63.3717 11.152H63.487V11.052ZM68.383 11.532H68.283C68.283 11.7677 68.2673 11.9781 68.2364 12.1636L68.335 12.18L68.4336 12.1964C68.4667 11.9979 68.483 11.7763 68.483 11.532H68.383ZM68.335 12.18V12.08H63.475V12.18V12.28H68.335V12.18ZM63.475 12.18L63.3753 12.1883C63.417 12.6881 63.5933 13.0894 63.9113 13.3816L63.979 13.308L64.0467 13.2344C63.7727 12.9826 63.613 12.6319 63.5747 12.1717L63.475 12.18ZM63.979 13.308L63.9113 13.3816C64.2272 13.6719 64.616 13.816 65.071 13.816V13.716V13.616C64.662 13.616 64.3228 13.4881 64.0467 13.2344L63.979 13.308ZM65.071 13.716V13.816C65.3975 13.816 65.6832 13.7458 65.9237 13.6006C66.1644 13.4553 66.3536 13.2387 66.4927 12.9562L66.403 12.912L66.3133 12.8678C66.1884 13.1213 66.0236 13.3067 65.8203 13.4294C65.6168 13.5522 65.3685 13.616 65.071 13.616V13.716ZM66.403 12.912V13.012H68.215V12.912V12.812H66.403V12.912ZM68.215 12.912L68.1192 12.8833C67.9334 13.5026 67.578 14.013 67.0503 14.4166L67.111 14.496L67.1717 14.5754C67.732 14.147 68.1126 13.6014 68.3108 12.9407L68.215 12.912ZM67.111 14.496L67.051 14.416C66.5271 14.809 65.8811 15.008 65.107 15.008V15.108V15.208C65.9169 15.208 66.6069 14.999 67.171 14.576L67.111 14.496ZM65.107 15.108V15.008C64.4821 15.008 63.9229 14.8715 63.427 14.6003L63.379 14.688L63.331 14.7757C63.8591 15.0645 64.4519 15.208 65.107 15.208V15.108ZM63.379 14.688L63.4286 14.6012C62.9409 14.3225 62.5578 13.9319 62.2785 13.4276L62.191 13.476L62.1035 13.5245C62.4002 14.0601 62.8091 14.4775 63.3294 14.7748L63.379 14.688ZM62.191 13.476L62.279 13.4286C62.008 12.9252 61.871 12.342 61.871 11.676H61.771H61.671C61.671 12.37 61.814 12.9868 62.103 13.5234L62.191 13.476ZM61.771 11.676H61.871C61.871 11.0018 62.0081 10.4146 62.279 9.91141L62.191 9.864L62.103 9.81659C61.8139 10.3534 61.671 10.9742 61.671 11.676H61.771ZM62.191 9.864L62.279 9.91141C62.5502 9.40781 62.9287 9.02189 63.4156 8.75142L63.367 8.664L63.3184 8.57658C62.7973 8.86611 62.3918 9.28019 62.103 9.81659L62.191 9.864ZM63.367 8.664L63.4156 8.75142C63.9028 8.48075 64.4656 8.344 65.107 8.344V8.244V8.144C64.4364 8.144 63.8392 8.28725 63.3184 8.57658L63.367 8.664ZM65.107 8.244V8.344C65.7242 8.344 66.2713 8.47668 66.7509 8.73968L66.799 8.652L66.8471 8.56432C66.3347 8.28332 65.7538 8.144 65.107 8.144V8.244ZM66.799 8.652L66.7515 8.74C67.2383 9.00274 67.6123 9.37666 67.875 9.86349L67.963 9.816L68.051 9.76851C67.7697 9.24734 67.3677 8.84526 66.8465 8.564L66.799 8.652ZM67.963 9.816L67.8759 9.86516C68.1463 10.3442 68.283 10.8988 68.283 11.532H68.383H68.483C68.483 10.8692 68.3397 10.2798 68.0501 9.76684L67.963 9.816ZM66.643 11.052L66.743 11.0501C66.7345 10.5921 66.5676 10.2198 66.2394 9.94351L66.175 10.02L66.1106 10.0965C66.3904 10.3322 66.5355 10.6479 66.543 11.0539L66.643 11.052ZM66.175 10.02L66.2406 9.9445C65.9166 9.66319 65.5207 9.524 65.059 9.524V9.624V9.724C65.4773 9.724 65.8254 9.84881 66.1094 10.0955L66.175 10.02ZM65.059 9.624V9.524C64.6206 9.524 64.2444 9.65964 63.9366 9.93326L64.003 10.008L64.0694 10.0827C64.3376 9.84436 64.6654 9.724 65.059 9.724V9.624ZM64.003 10.008L63.9367 9.93314C63.6354 10.2 63.4546 10.5715 63.388 11.0379L63.487 11.052L63.586 11.0661C63.6474 10.6365 63.8106 10.312 64.0693 10.0829L64.003 10.008ZM63.487 11.052V11.152H66.643V11.052V10.952H63.487V11.052ZM73.9533 7.02L73.8862 7.09416L73.8874 7.09526L73.9533 7.02ZM73.9652 10.68L74.0282 10.7577L74.0289 10.7571L73.9652 10.68ZM71.9613 11.292V11.192H71.8663L71.8614 11.2868L71.9613 11.292ZM71.9132 12.216V12.316H72.0082L72.0131 12.2212L71.9132 12.216ZM70.4372 12.216L70.3373 12.2189L70.3401 12.316H70.4372V12.216ZM70.3773 10.176V10.076H70.2743L70.2773 10.1789L70.3773 10.176ZM72.5252 9.9L72.4813 9.81018V9.81018L72.5252 9.9ZM72.7772 8.052L72.7052 8.12132L72.7065 8.12271L72.7772 8.052ZM71.0853 8.04L71.0159 7.9679L71.0145 7.96929L71.0853 8.04ZM70.7853 8.868V8.968H70.8853V8.868H70.7853ZM69.2012 8.868L69.1013 8.86964L69.1029 8.968H69.2012V8.868ZM69.5132 7.56L69.6004 7.60903V7.60903L69.5132 7.56ZM70.4613 6.66L70.4159 6.57089L70.4152 6.57125L70.4613 6.66ZM70.4132 14.808L70.3425 14.8788L70.3455 14.8816L70.4132 14.808ZM70.4132 13.404L70.4824 13.4762L70.4825 13.4761L70.4132 13.404ZM71.9012 13.404L71.8305 13.4747L71.8321 13.4762L71.9012 13.404ZM71.9012 14.808L71.9705 14.8802L71.972 14.8787L71.9012 14.808ZM71.9492 6.336V6.436C72.7623 6.436 73.4044 6.65832 73.8862 7.09415L73.9533 7.02L74.0203 6.94585C73.4941 6.46968 72.8002 6.236 71.9492 6.236V6.336ZM73.9533 7.02L73.8874 7.09526C74.3741 7.52108 74.6213 8.11161 74.6213 8.88H74.7213H74.8213C74.8213 8.06439 74.5564 7.41492 74.0191 6.94474L73.9533 7.02ZM74.7213 8.88H74.6213C74.6213 9.64074 74.3779 10.2097 73.9016 10.6029L73.9652 10.68L74.0289 10.7571C74.5606 10.3183 74.8213 9.68726 74.8213 8.88H74.7213ZM73.9652 10.68L73.9023 10.6023C73.4207 10.9922 72.7769 11.192 71.9613 11.192V11.292V11.392C72.8096 11.392 73.5018 11.1838 74.0282 10.7577L73.9652 10.68ZM71.9613 11.292L71.8614 11.2868L71.8134 12.2108L71.9132 12.216L72.0131 12.2212L72.0611 11.2972L71.9613 11.292ZM71.9132 12.216V12.116H70.4372V12.216V12.316H71.9132V12.216ZM70.4372 12.216L70.5372 12.2131L70.4772 10.1731L70.3773 10.176L70.2773 10.1789L70.3373 12.2189L70.4372 12.216ZM70.3773 10.176V10.276H70.9173V10.176V10.076H70.3773V10.176ZM70.9173 10.176V10.276C71.6196 10.276 72.1733 10.1835 72.5692 9.98982L72.5252 9.9L72.4813 9.81018C72.1252 9.98445 71.6069 10.076 70.9173 10.076V10.176ZM72.5252 9.9L72.5692 9.98982C72.7738 9.8897 72.9307 9.74614 73.0355 9.55883C73.1398 9.37243 73.1893 9.14861 73.1893 8.892H73.0892H72.9893C72.9893 9.12339 72.9447 9.31157 72.861 9.46117C72.7778 9.60986 72.6527 9.7263 72.4813 9.81018L72.5252 9.9ZM73.0892 8.892H73.1893C73.1893 8.51906 73.0783 8.21165 72.848 7.98129L72.7772 8.052L72.7065 8.12271C72.8922 8.30834 72.9893 8.56093 72.9893 8.892H73.0892ZM72.7772 8.052L72.8493 7.98269C72.6265 7.7509 72.322 7.64 71.9492 7.64V7.74V7.84C72.2805 7.84 72.528 7.9371 72.7052 8.12131L72.7772 8.052ZM71.9492 7.74V7.64C71.5628 7.64 71.2473 7.74545 71.0159 7.96792L71.0853 8.04L71.1546 8.11208C71.3392 7.93455 71.5997 7.84 71.9492 7.84V7.74ZM71.0853 8.04L71.0145 7.96929C70.7914 8.19239 70.6852 8.49634 70.6852 8.868H70.7853H70.8853C70.8853 8.53566 70.9791 8.28761 71.156 8.11071L71.0853 8.04ZM70.7853 8.868V8.768H69.2012V8.868V8.968H70.7853V8.868ZM69.2012 8.868L69.3012 8.86636C69.2935 8.39413 69.394 7.97595 69.6004 7.60903L69.5132 7.56L69.4261 7.51097C69.2005 7.91205 69.093 8.36587 69.1013 8.86964L69.2012 8.868ZM69.5132 7.56L69.6004 7.60903C69.8063 7.24308 70.1074 6.95639 70.5073 6.74875L70.4613 6.66L70.4152 6.57125C69.9831 6.79561 69.6522 7.10892 69.4261 7.51097L69.5132 7.56ZM70.4613 6.66L70.5066 6.7491C70.9141 6.54153 71.394 6.436 71.9492 6.436V6.336V6.236C71.3685 6.236 70.8564 6.34647 70.4159 6.5709L70.4613 6.66ZM71.1693 15.084V14.984C70.8871 14.984 70.6603 14.8994 70.481 14.7344L70.4132 14.808L70.3455 14.8816C70.5662 15.0846 70.8434 15.184 71.1693 15.184V15.084ZM70.4132 14.808L70.484 14.7373C70.3114 14.5647 70.2253 14.3544 70.2253 14.1H70.1253H70.0252C70.0252 14.4056 70.1311 14.6673 70.3425 14.8787L70.4132 14.808ZM70.1253 14.1H70.2253C70.2253 13.8456 70.3113 13.6402 70.4824 13.4762L70.4132 13.404L70.3441 13.3318C70.1312 13.5358 70.0252 13.7944 70.0252 14.1H70.1253ZM70.4132 13.404L70.4825 13.4761C70.662 13.3038 70.8883 13.216 71.1693 13.216V13.116V13.016C70.8422 13.016 70.5645 13.1202 70.344 13.3319L70.4132 13.404ZM71.1693 13.116V13.216C71.4414 13.216 71.6591 13.3032 71.8305 13.4747L71.9012 13.404L71.972 13.3333C71.7594 13.1208 71.4891 13.016 71.1693 13.016V13.116ZM71.9012 13.404L71.8321 13.4762C72.0032 13.6402 72.0892 13.8456 72.0892 14.1H72.1893H72.2892C72.2892 13.7944 72.1833 13.5358 71.9704 13.3318L71.9012 13.404ZM72.1893 14.1H72.0892C72.0892 14.3544 72.0031 14.5647 71.8305 14.7373L71.9012 14.808L71.972 14.8787C72.1834 14.6673 72.2892 14.4056 72.2892 14.1H72.1893ZM71.9012 14.808L71.8321 14.7358C71.6608 14.8999 71.4426 14.984 71.1693 14.984V15.084V15.184C71.4879 15.184 71.7577 15.0841 71.9704 14.8802L71.9012 14.808Z" fill="url(#paint3_linear_13_89)" mask="url(#path-7-outside-1_13_89)"/>
<path d="M35.252 17.208C35.5453 17.208 35.8027 17.2653 36.024 17.38C36.248 17.4947 36.42 17.6587 36.54 17.872C36.6627 18.0827 36.724 18.328 36.724 18.608C36.724 18.888 36.6627 19.1333 36.54 19.344C36.42 19.552 36.248 19.7133 36.024 19.828C35.8027 19.9427 35.5453 20 35.252 20H34.276V17.208H35.252ZM35.232 19.524C35.5253 19.524 35.752 19.444 35.912 19.284C36.072 19.124 36.152 18.8987 36.152 18.608C36.152 18.3173 36.072 18.0907 35.912 17.928C35.752 17.7627 35.5253 17.68 35.232 17.68H34.836V19.524H35.232ZM39.2032 18.844C39.2032 18.924 39.1979 18.996 39.1872 19.06H37.5672C37.5805 19.22 37.6365 19.3453 37.7352 19.436C37.8339 19.5267 37.9552 19.572 38.0992 19.572C38.3072 19.572 38.4552 19.4827 38.5432 19.304H39.1472C39.0832 19.5173 38.9605 19.6933 38.7792 19.832C38.5979 19.968 38.3752 20.036 38.1112 20.036C37.8979 20.036 37.7059 19.9893 37.5352 19.896C37.3672 19.8 37.2352 19.6653 37.1392 19.492C37.0459 19.3187 36.9992 19.1187 36.9992 18.892C36.9992 18.6627 37.0459 18.4613 37.1392 18.288C37.2325 18.1147 37.3632 17.9813 37.5312 17.888C37.6992 17.7947 37.8925 17.748 38.1112 17.748C38.3219 17.748 38.5099 17.7933 38.6752 17.884C38.8432 17.9747 38.9725 18.104 39.0632 18.272C39.1565 18.4373 39.2032 18.628 39.2032 18.844ZM38.6232 18.684C38.6205 18.54 38.5685 18.4253 38.4672 18.34C38.3659 18.252 38.2419 18.208 38.0952 18.208C37.9565 18.208 37.8392 18.2507 37.7432 18.336C37.6499 18.4187 37.5925 18.5347 37.5712 18.684H38.6232ZM41.6719 18.844C41.6719 18.924 41.6666 18.996 41.6559 19.06H40.0359C40.0493 19.22 40.1053 19.3453 40.2039 19.436C40.3026 19.5267 40.4239 19.572 40.5679 19.572C40.7759 19.572 40.9239 19.4827 41.0119 19.304H41.6159C41.5519 19.5173 41.4293 19.6933 41.2479 19.832C41.0666 19.968 40.8439 20.036 40.5799 20.036C40.3666 20.036 40.1746 19.9893 40.0039 19.896C39.8359 19.8 39.7039 19.6653 39.6079 19.492C39.5146 19.3187 39.4679 19.1187 39.4679 18.892C39.4679 18.6627 39.5146 18.4613 39.6079 18.288C39.7013 18.1147 39.8319 17.9813 39.9999 17.888C40.1679 17.7947 40.3613 17.748 40.5799 17.748C40.7906 17.748 40.9786 17.7933 41.1439 17.884C41.3119 17.9747 41.4413 18.104 41.5319 18.272C41.6253 18.4373 41.6719 18.628 41.6719 18.844ZM41.0919 18.684C41.0893 18.54 41.0373 18.4253 40.9359 18.34C40.8346 18.252 40.7106 18.208 40.5639 18.208C40.4253 18.208 40.3079 18.2507 40.2119 18.336C40.1186 18.4187 40.0613 18.5347 40.0399 18.684H41.0919ZM42.6407 18.104C42.7127 18.0027 42.8114 17.9187 42.9367 17.852C43.0647 17.7827 43.21 17.748 43.3727 17.748C43.562 17.748 43.7327 17.7947 43.8847 17.888C44.0394 17.9813 44.1607 18.1147 44.2487 18.288C44.3394 18.4587 44.3847 18.6573 44.3847 18.884C44.3847 19.1107 44.3394 19.312 44.2487 19.488C44.1607 19.6613 44.0394 19.796 43.8847 19.892C43.7327 19.988 43.562 20.036 43.3727 20.036C43.21 20.036 43.066 20.0027 42.9407 19.936C42.818 19.8693 42.718 19.7853 42.6407 19.684V21.056H42.0807V17.784H42.6407V18.104ZM43.8127 18.884C43.8127 18.7507 43.7847 18.636 43.7287 18.54C43.6754 18.4413 43.6034 18.3667 43.5127 18.316C43.4247 18.2653 43.3287 18.24 43.2247 18.24C43.1234 18.24 43.0274 18.2667 42.9367 18.32C42.8487 18.3707 42.7767 18.4453 42.7207 18.544C42.6674 18.6427 42.6407 18.7587 42.6407 18.892C42.6407 19.0253 42.6674 19.1413 42.7207 19.24C42.7767 19.3387 42.8487 19.4147 42.9367 19.468C43.0274 19.5187 43.1234 19.544 43.2247 19.544C43.3287 19.544 43.4247 19.5173 43.5127 19.464C43.6034 19.4107 43.6754 19.3347 43.7287 19.236C43.7847 19.1373 43.8127 19.02 43.8127 18.884ZM45.8076 18.244H45.4196V20H44.8516V18.244H44.5996V17.784H44.8516V17.672C44.8516 17.4 44.929 17.2 45.0836 17.072C45.2383 16.944 45.4716 16.884 45.7836 16.892V17.364C45.6476 17.3613 45.553 17.384 45.4996 17.432C45.4463 17.48 45.4196 17.5667 45.4196 17.692V17.784H45.8076V18.244ZM46.0265 18.884C46.0265 18.66 46.0705 18.4613 46.1585 18.288C46.2492 18.1147 46.3705 17.9813 46.5225 17.888C46.6772 17.7947 46.8492 17.748 47.0385 17.748C47.2039 17.748 47.3479 17.7813 47.4705 17.848C47.5959 17.9147 47.6959 17.9987 47.7705 18.1V17.784H48.3345V20H47.7705V19.676C47.6985 19.78 47.5985 19.8667 47.4705 19.936C47.3452 20.0027 47.1999 20.036 47.0345 20.036C46.8479 20.036 46.6772 19.988 46.5225 19.892C46.3705 19.796 46.2492 19.6613 46.1585 19.488C46.0705 19.312 46.0265 19.1107 46.0265 18.884ZM47.7705 18.892C47.7705 18.756 47.7439 18.64 47.6905 18.544C47.6372 18.4453 47.5652 18.3707 47.4745 18.32C47.3839 18.2667 47.2865 18.24 47.1825 18.24C47.0785 18.24 46.9825 18.2653 46.8945 18.316C46.8065 18.3667 46.7345 18.4413 46.6785 18.54C46.6252 18.636 46.5985 18.7507 46.5985 18.884C46.5985 19.0173 46.6252 19.1347 46.6785 19.236C46.7345 19.3347 46.8065 19.4107 46.8945 19.464C46.9852 19.5173 47.0812 19.544 47.1825 19.544C47.2865 19.544 47.3839 19.5187 47.4745 19.468C47.5652 19.4147 47.6372 19.34 47.6905 19.244C47.7439 19.1453 47.7705 19.028 47.7705 18.892ZM50.1935 20L49.4415 19.056V20H48.8815V17.04H49.4415V18.724L50.1855 17.784H50.9135L49.9375 18.896L50.9215 20H50.1935ZM53.2774 18.844C53.2774 18.924 53.2721 18.996 53.2614 19.06H51.6414C51.6547 19.22 51.7107 19.3453 51.8094 19.436C51.9081 19.5267 52.0294 19.572 52.1734 19.572C52.3814 19.572 52.5294 19.4827 52.6174 19.304H53.2214C53.1574 19.5173 53.0347 19.6933 52.8534 19.832C52.6721 19.968 52.4494 20.036 52.1854 20.036C51.9721 20.036 51.7801 19.9893 51.6094 19.896C51.4414 19.8 51.3094 19.6653 51.2134 19.492C51.1201 19.3187 51.0734 19.1187 51.0734 18.892C51.0734 18.6627 51.1201 18.4613 51.2134 18.288C51.3067 18.1147 51.4374 17.9813 51.6054 17.888C51.7734 17.7947 51.9667 17.748 52.1854 17.748C52.3961 17.748 52.5841 17.7933 52.7494 17.884C52.9174 17.9747 53.0467 18.104 53.1374 18.272C53.2307 18.4373 53.2774 18.628 53.2774 18.844ZM52.6974 18.684C52.6947 18.54 52.6427 18.4253 52.5414 18.34C52.4401 18.252 52.3161 18.208 52.1694 18.208C52.0307 18.208 51.9134 18.2507 51.8174 18.336C51.7241 18.4187 51.6667 18.5347 51.6454 18.684H52.6974ZM55.6153 17.208C55.9086 17.208 56.1659 17.2653 56.3873 17.38C56.6113 17.4947 56.7833 17.6587 56.9033 17.872C57.0259 18.0827 57.0873 18.328 57.0873 18.608C57.0873 18.888 57.0259 19.1333 56.9033 19.344C56.7833 19.552 56.6113 19.7133 56.3873 19.828C56.1659 19.9427 55.9086 20 55.6153 20H54.6393V17.208H55.6153ZM55.5953 19.524C55.8886 19.524 56.1153 19.444 56.2753 19.284C56.4353 19.124 56.5153 18.8987 56.5153 18.608C56.5153 18.3173 56.4353 18.0907 56.2753 17.928C56.1153 17.7627 55.8886 17.68 55.5953 17.68H55.1993V19.524H55.5953ZM59.5665 18.844C59.5665 18.924 59.5611 18.996 59.5505 19.06H57.9305C57.9438 19.22 57.9998 19.3453 58.0985 19.436C58.1971 19.5267 58.3185 19.572 58.4625 19.572C58.6705 19.572 58.8185 19.4827 58.9065 19.304H59.5105C59.4465 19.5173 59.3238 19.6933 59.1425 19.832C58.9611 19.968 58.7385 20.036 58.4745 20.036C58.2611 20.036 58.0691 19.9893 57.8985 19.896C57.7305 19.8 57.5985 19.6653 57.5025 19.492C57.4091 19.3187 57.3625 19.1187 57.3625 18.892C57.3625 18.6627 57.4091 18.4613 57.5025 18.288C57.5958 18.1147 57.7265 17.9813 57.8945 17.888C58.0625 17.7947 58.2558 17.748 58.4745 17.748C58.6851 17.748 58.8731 17.7933 59.0385 17.884C59.2065 17.9747 59.3358 18.104 59.4265 18.272C59.5198 18.4373 59.5665 18.628 59.5665 18.844ZM58.9865 18.684C58.9838 18.54 58.9318 18.4253 58.8305 18.34C58.7291 18.252 58.6051 18.208 58.4585 18.208C58.3198 18.208 58.2025 18.2507 58.1065 18.336C58.0131 18.4187 57.9558 18.5347 57.9345 18.684H58.9865ZM60.6272 18.244V19.316C60.6272 19.3907 60.6446 19.4453 60.6792 19.48C60.7166 19.512 60.7779 19.528 60.8632 19.528H61.1232V20H60.7712C60.2992 20 60.0632 19.7707 60.0632 19.312V18.244H59.7992V17.784H60.0632V17.236H60.6272V17.784H61.1232V18.244H60.6272ZM63.586 18.844C63.586 18.924 63.5807 18.996 63.57 19.06H61.95C61.9633 19.22 62.0193 19.3453 62.118 19.436C62.2167 19.5267 62.338 19.572 62.482 19.572C62.69 19.572 62.838 19.4827 62.926 19.304H63.53C63.466 19.5173 63.3433 19.6933 63.162 19.832C62.9807 19.968 62.758 20.036 62.494 20.036C62.2807 20.036 62.0887 19.9893 61.918 19.896C61.75 19.8 61.618 19.6653 61.522 19.492C61.4287 19.3187 61.382 19.1187 61.382 18.892C61.382 18.6627 61.4287 18.4613 61.522 18.288C61.6153 18.1147 61.746 17.9813 61.914 17.888C62.082 17.7947 62.2753 17.748 62.494 17.748C62.7047 17.748 62.8927 17.7933 63.058 17.884C63.226 17.9747 63.3553 18.104 63.446 18.272C63.5393 18.4373 63.586 18.628 63.586 18.844ZM63.006 18.684C63.0033 18.54 62.9513 18.4253 62.85 18.34C62.7487 18.252 62.6247 18.208 62.478 18.208C62.3393 18.208 62.222 18.2507 62.126 18.336C62.0327 18.4187 61.9753 18.5347 61.954 18.684H63.006ZM63.8507 18.892C63.8507 18.6627 63.8974 18.4627 63.9908 18.292C64.0841 18.1187 64.2134 17.9853 64.3788 17.892C64.5441 17.796 64.7334 17.748 64.9468 17.748C65.2214 17.748 65.4481 17.8173 65.6268 17.956C65.8081 18.092 65.9294 18.284 65.9908 18.532H65.3868C65.3548 18.436 65.3001 18.3613 65.2228 18.308C65.1481 18.252 65.0548 18.224 64.9428 18.224C64.7828 18.224 64.6561 18.2827 64.5628 18.4C64.4694 18.5147 64.4228 18.6787 64.4228 18.892C64.4228 19.1027 64.4694 19.2667 64.5628 19.384C64.6561 19.4987 64.7828 19.556 64.9428 19.556C65.1694 19.556 65.3174 19.4547 65.3868 19.252H65.9908C65.9294 19.492 65.8081 19.6827 65.6268 19.824C65.4454 19.9653 65.2188 20.036 64.9468 20.036C64.7334 20.036 64.5441 19.9893 64.3788 19.896C64.2134 19.8 64.0841 19.6667 63.9908 19.496C63.8974 19.3227 63.8507 19.1213 63.8507 18.892ZM67.053 18.244V19.316C67.053 19.3907 67.0703 19.4453 67.105 19.48C67.1423 19.512 67.2037 19.528 67.289 19.528H67.549V20H67.197C66.725 20 66.489 19.7707 66.489 19.312V18.244H66.225V17.784H66.489V17.236H67.053V17.784H67.549V18.244H67.053ZM68.9358 20.036C68.7224 20.036 68.5304 19.9893 68.3598 19.896C68.1891 19.8 68.0544 19.6653 67.9558 19.492C67.8598 19.3187 67.8118 19.1187 67.8118 18.892C67.8118 18.6653 67.8611 18.4653 67.9598 18.292C68.0611 18.1187 68.1984 17.9853 68.3718 17.892C68.5451 17.796 68.7384 17.748 68.9518 17.748C69.1651 17.748 69.3584 17.796 69.5318 17.892C69.7051 17.9853 69.8411 18.1187 69.9398 18.292C70.0411 18.4653 70.0918 18.6653 70.0918 18.892C70.0918 19.1187 70.0398 19.3187 69.9358 19.492C69.8344 19.6653 69.6958 19.8 69.5198 19.896C69.3464 19.9893 69.1518 20.036 68.9358 20.036ZM68.9358 19.548C69.0371 19.548 69.1318 19.524 69.2198 19.476C69.3104 19.4253 69.3824 19.3507 69.4358 19.252C69.4891 19.1533 69.5158 19.0333 69.5158 18.892C69.5158 18.6813 69.4598 18.52 69.3478 18.408C69.2384 18.2933 69.1038 18.236 68.9438 18.236C68.7838 18.236 68.6491 18.2933 68.5398 18.408C68.4331 18.52 68.3798 18.6813 68.3798 18.892C68.3798 19.1027 68.4318 19.2653 68.5358 19.38C68.6424 19.492 68.7758 19.548 68.9358 19.548ZM71.0626 18.128C71.1346 18.0107 71.2279 17.9187 71.3426 17.852C71.4599 17.7853 71.5932 17.752 71.7426 17.752V18.34H71.5946C71.4186 18.34 71.2852 18.3813 71.1946 18.464C71.1066 18.5467 71.0626 18.6907 71.0626 18.896V20H70.5026V17.784H71.0626V18.128Z" fill="#DEFFFC"/>
<path d="M76.2848 2.87739L77.5676 4.10586L79.1427 3.28481L77.9142 4.56764L78.7353 6.14266L77.4524 4.91419L75.8774 5.73525L77.1059 4.45241L76.2848 2.87739Z" fill="white"/>
<path fill-rule="evenodd" clip-rule="evenodd" d="M76.2836 3.54792C75.7522 4.22526 75.8706 5.20509 76.5479 5.73645C77.2253 6.2678 78.2051 6.14946 78.7364 5.47213C79.2678 4.79479 79.1495 3.81496 78.4721 3.2836C77.7948 2.75225 76.815 2.87059 76.2836 3.54792ZM76.5021 5.79485C75.7925 5.23819 75.6685 4.2117 76.2252 3.50211C76.7819 2.79252 77.8084 2.66855 78.5179 3.2252C79.2275 3.78186 79.3515 4.80835 78.7948 5.51794C78.2382 6.22753 77.2117 6.35151 76.5021 5.79485Z" fill="white"/>
<path d="M75 1C75.0195 1.54399 75.456 1.98048 76 2C75.456 2.01952 75.0195 2.45601 75 3C74.9805 2.45601 74.544 2.01952 74 2C74.544 1.98048 74.9805 1.54399 75 1Z" fill="white"/>
<defs>
<filter id="filter0_f_13_89" x="0" y="0" width="19" height="19" filterUnits="userSpaceOnUse" color-interpolation-filters="sRGB">
<feFlood flood-opacity="0" result="BackgroundImageFix"/>
<feBlend mode="normal" in="SourceGraphic" in2="BackgroundImageFix" result="shape"/>
<feGaussianBlur stdDeviation="2" result="effect1_foregroundBlur_13_89"/>
</filter>
<filter id="filter1_f_13_89" x="10" y="10" width="13.5351" height="13.3526" filterUnits="userSpaceOnUse" color-interpolation-filters="sRGB">
<feFlood flood-opacity="0" result="BackgroundImageFix"/>
<feBlend mode="normal" in="SourceGraphic" in2="BackgroundImageFix" result="shape"/>
<feGaussianBlur stdDeviation="2" result="effect1_foregroundBlur_13_89"/>
</filter>
<linearGradient id="paint0_linear_13_89" x1="12" y1="3" x2="12" y2="21" gradientUnits="userSpaceOnUse">
<stop stop-color="#ACFFF7"/>
<stop offset="1" stop-color="#0B74A5"/>
</linearGradient>
<linearGradient id="paint1_linear_13_89" x1="12" y1="3" x2="12" y2="21" gradientUnits="userSpaceOnUse">
<stop stop-color="#DDF4FF"/>
<stop offset="1" stop-color="#3DACDF"/>
</linearGradient>
<linearGradient id="paint2_linear_13_89" x1="49" y1="6" x2="49" y2="17" gradientUnits="userSpaceOnUse">
<stop stop-color="#ACFFF7"/>
<stop offset="1" stop-color="#0B74A5"/>
</linearGradient>
<linearGradient id="paint3_linear_13_89" x1="49" y1="2" x2="49" y2="20" gradientUnits="userSpaceOnUse">
<stop stop-color="#DDF4FF"/>
<stop offset="1" stop-color="#3DACDF"/>
</linearGradient>
<clipPath id="clip0_13_89">
<rect width="24" height="24" fill="white"/>
</clipPath>
</defs>
</svg>
